<svg height="5390" width="720" xmlns="http://www.w3.org/2000/svg">
<rect height="5390" fill="#555" width="720"></rect>
<text fill="#7f7" font-family="Courier New" font-size="12" xml:space="preserve">
<tspan x="10" y="26">74 megabytes installed</tspan>
<tspan x="10" y="42"></tspan>
<tspan x="10" y="58">node_modules</tspan>
<tspan x="10" y="74">└─┬ ember-bootstrap@1.0.0-alpha.12 </tspan>
<tspan x="10" y="90">  ├─┬ broccoli-funnel@1.2.0 </tspan>
<tspan x="10" y="106">  │ ├── array-equal@1.0.0 </tspan>
<tspan x="10" y="122">  │ ├── blank-object@1.0.2 </tspan>
<tspan x="10" y="138">  │ ├─┬ broccoli-plugin@1.3.0 </tspan>
<tspan x="10" y="154">  │ │ ├── promise-map-series@0.2.3 </tspan>
<tspan x="10" y="170">  │ │ └─┬ quick-temp@0.1.8 </tspan>
<tspan x="10" y="186">  │ │   ├── mktemp@0.4.0 </tspan>
<tspan x="10" y="202">  │ │   └─┬ underscore.string@3.3.4 </tspan>
<tspan x="10" y="218">  │ │     ├── sprintf-js@1.0.3 </tspan>
<tspan x="10" y="234">  │ │     └── util-deprecate@1.0.2 </tspan>
<tspan x="10" y="250">  │ ├─┬ debug@2.6.5 </tspan>
<tspan x="10" y="266">  │ │ └── ms@0.7.3 </tspan>
<tspan x="10" y="282">  │ ├── exists-sync@0.0.4 </tspan>
<tspan x="10" y="298">  │ ├── fast-ordered-set@1.0.3 </tspan>
<tspan x="10" y="314">  │ ├─┬ fs-tree-diff@0.5.6 </tspan>
<tspan x="10" y="330">  │ │ └── object-assign@4.1.1 </tspan>
<tspan x="10" y="346">  │ ├─┬ heimdalljs@0.2.4 </tspan>
<tspan x="10" y="362">  │ │ └── rsvp@3.2.1 </tspan>
<tspan x="10" y="378">  │ ├─┬ minimatch@3.0.3 </tspan>
<tspan x="10" y="394">  │ │ └─┬ brace-expansion@1.1.7 </tspan>
<tspan x="10" y="410">  │ │   ├── balanced-match@0.4.2 </tspan>
<tspan x="10" y="426">  │ │   └── concat-map@0.0.1 </tspan>
<tspan x="10" y="442">  │ ├─┬ mkdirp@0.5.1 </tspan>
<tspan x="10" y="458">  │ │ └── minimist@0.0.8 </tspan>
<tspan x="10" y="474">  │ ├── path-posix@1.0.0 </tspan>
<tspan x="10" y="490">  │ ├─┬ rimraf@2.6.1 </tspan>
<tspan x="10" y="506">  │ │ └─┬ glob@7.1.1 </tspan>
<tspan x="10" y="522">  │ │   ├── fs.realpath@1.0.0 </tspan>
<tspan x="10" y="538">  │ │   ├─┬ inflight@1.0.6 </tspan>
<tspan x="10" y="554">  │ │   │ └── wrappy@1.0.2 </tspan>
<tspan x="10" y="570">  │ │   ├── inherits@2.0.3 </tspan>
<tspan x="10" y="586">  │ │   ├── once@1.4.0 </tspan>
<tspan x="10" y="602">  │ │   └── path-is-absolute@1.0.1 </tspan>
<tspan x="10" y="618">  │ ├── symlink-or-copy@1.1.8 </tspan>
<tspan x="10" y="634">  │ └─┬ walk-sync@0.3.1 </tspan>
<tspan x="10" y="650">  │   └── matcher-collection@1.0.4 </tspan>
<tspan x="10" y="666">  ├─┬ broccoli-merge-trees@1.2.4 </tspan>
<tspan x="10" y="682">  │ ├─┬ can-symlink@1.0.0 </tspan>
<tspan x="10" y="698">  │ │ └─┬ tmp@0.0.28 </tspan>
<tspan x="10" y="714">  │ │   └── os-tmpdir@1.0.2 </tspan>
<tspan x="10" y="730">  │ └── heimdalljs-logger@0.1.9 </tspan>
<tspan x="10" y="746">  ├─┬ broccoli-stew@1.4.2 </tspan>
<tspan x="10" y="762">  │ ├─┬ broccoli-persistent-filter@1.3.1 </tspan>
<tspan x="10" y="778">  │ │ ├─┬ async-disk-cache@1.3.1 </tspan>
<tspan x="10" y="794">  │ │ │ └─┬ istextorbinary@2.1.0 </tspan>
<tspan x="10" y="810">  │ │ │   ├── binaryextensions@2.0.0 </tspan>
<tspan x="10" y="826">  │ │ │   ├── editions@1.3.3 </tspan>
<tspan x="10" y="842">  │ │ │   └── textextensions@2.1.0 </tspan>
<tspan x="10" y="858">  │ │ └─┬ md5-hex@1.3.0 </tspan>
<tspan x="10" y="874">  │ │   └── md5-o-matic@0.1.1 </tspan>
<tspan x="10" y="890">  │ ├── ensure-posix-path@1.0.2 </tspan>
<tspan x="10" y="906">  │ ├─┬ resolve@1.3.3 </tspan>
<tspan x="10" y="922">  │ │ └── path-parse@1.0.5 </tspan>
<tspan x="10" y="938">  │ └─┬ sanitize-filename@1.6.1 </tspan>
<tspan x="10" y="954">  │   └─┬ truncate-utf8-bytes@1.0.2 </tspan>
<tspan x="10" y="970">  │     └── utf8-byte-length@1.0.4 </tspan>
<tspan x="10" y="986">  ├─┬ chalk@1.1.3 </tspan>
<tspan x="10" y="1002">  │ ├── ansi-styles@2.2.1 </tspan>
<tspan x="10" y="1018">  │ ├── escape-string-regexp@1.0.5 </tspan>
<tspan x="10" y="1034">  │ ├─┬ has-ansi@2.0.0 </tspan>
<tspan x="10" y="1050">  │ │ └── ansi-regex@2.1.1 </tspan>
<tspan x="10" y="1066">  │ ├── strip-ansi@3.0.1 </tspan>
<tspan x="10" y="1082">  │ └── supports-color@2.0.0 </tspan>
<tspan x="10" y="1098">  ├─┬ ember-cli-babel@6.0.0 </tspan>
<tspan x="10" y="1114">  │ ├── amd-name-resolver@0.0.6 </tspan>
<tspan x="10" y="1130">  │ ├─┬ babel-plugin-transform-es2015-modules-amd@6.24.1 </tspan>
<tspan x="10" y="1146">  │ │ ├─┬ babel-plugin-transform-es2015-modules-commonjs@6.24.1 </tspan>
<tspan x="10" y="1162">  │ │ │ ├── babel-plugin-transform-strict-mode@6.24.1 </tspan>
<tspan x="10" y="1178">  │ │ │ └─┬ babel-types@6.24.1 </tspan>
<tspan x="10" y="1194">  │ │ │   ├── esutils@2.0.2 </tspan>
<tspan x="10" y="1210">  │ │ │   └── to-fast-properties@1.0.2 </tspan>
<tspan x="10" y="1226">  │ │ ├── babel-runtime@6.23.0 </tspan>
<tspan x="10" y="1242">  │ │ └─┬ babel-template@6.24.1 </tspan>
<tspan x="10" y="1258">  │ │   ├─┬ babel-traverse@6.24.1 </tspan>
<tspan x="10" y="1274">  │ │   │ └── globals@9.17.0 </tspan>
<tspan x="10" y="1290">  │ │   ├── babylon@6.17.0 </tspan>
<tspan x="10" y="1306">  │ │   └── lodash@4.17.4 </tspan>
<tspan x="10" y="1322">  │ ├─┬ babel-polyfill@6.23.0 </tspan>
<tspan x="10" y="1338">  │ │ ├── core-js@2.4.1 </tspan>
<tspan x="10" y="1354">  │ │ └── regenerator-runtime@0.10.4 </tspan>
<tspan x="10" y="1370">  │ ├─┬ babel-preset-env@1.4.0 </tspan>
<tspan x="10" y="1386">  │ │ ├── babel-plugin-check-es2015-constants@6.22.0 </tspan>
<tspan x="10" y="1402">  │ │ ├── babel-plugin-syntax-trailing-function-commas@6.22.0 </tspan>
<tspan x="10" y="1418">  │ │ ├─┬ babel-plugin-transform-async-to-generator@6.24.1 </tspan>
<tspan x="10" y="1434">  │ │ │ ├── babel-helper-remap-async-to-generator@6.24.1 </tspan>
<tspan x="10" y="1450">  │ │ │ └── babel-plugin-syntax-async-functions@6.13.0 </tspan>
<tspan x="10" y="1466">  │ │ ├── babel-plugin-transform-es2015-arrow-functions@6.22.0 </tspan>
<tspan x="10" y="1482">  │ │ ├── babel-plugin-transform-es2015-block-scoped-functions@6.22.0 </tspan>
<tspan x="10" y="1498">  │ │ ├── babel-plugin-transform-es2015-block-scoping@6.24.1 </tspan>
<tspan x="10" y="1514">  │ │ ├─┬ babel-plugin-transform-es2015-classes@6.24.1 </tspan>
<tspan x="10" y="1530">  │ │ │ ├── babel-helper-define-map@6.24.1 </tspan>
<tspan x="10" y="1546">  │ │ │ ├── babel-helper-function-name@6.24.1 </tspan>
<tspan x="10" y="1562">  │ │ │ ├── babel-helper-optimise-call-expression@6.24.1 </tspan>
<tspan x="10" y="1578">  │ │ │ ├── babel-helper-replace-supers@6.24.1 </tspan>
<tspan x="10" y="1594">  │ │ │ └── babel-messages@6.23.0 </tspan>
<tspan x="10" y="1610">  │ │ ├── babel-plugin-transform-es2015-computed-properties@6.24.1 </tspan>
<tspan x="10" y="1626">  │ │ ├── babel-plugin-transform-es2015-destructuring@6.23.0 </tspan>
<tspan x="10" y="1642">  │ │ ├── babel-plugin-transform-es2015-duplicate-keys@6.24.1 </tspan>
<tspan x="10" y="1658">  │ │ ├── babel-plugin-transform-es2015-for-of@6.23.0 </tspan>
<tspan x="10" y="1674">  │ │ ├── babel-plugin-transform-es2015-function-name@6.24.1 </tspan>
<tspan x="10" y="1690">  │ │ ├── babel-plugin-transform-es2015-literals@6.22.0 </tspan>
<tspan x="10" y="1706">  │ │ ├─┬ babel-plugin-transform-es2015-modules-systemjs@6.24.1 </tspan>
<tspan x="10" y="1722">  │ │ │ └── babel-helper-hoist-variables@6.24.1 </tspan>
<tspan x="10" y="1738">  │ │ ├── babel-plugin-transform-es2015-modules-umd@6.24.1 </tspan>
<tspan x="10" y="1754">  │ │ ├── babel-plugin-transform-es2015-object-super@6.24.1 </tspan>
<tspan x="10" y="1770">  │ │ ├─┬ babel-plugin-transform-es2015-parameters@6.24.1 </tspan>
<tspan x="10" y="1786">  │ │ │ ├── babel-helper-call-delegate@6.24.1 </tspan>
<tspan x="10" y="1802">  │ │ │ └── babel-helper-get-function-arity@6.24.1 </tspan>
<tspan x="10" y="1818">  │ │ ├── babel-plugin-transform-es2015-shorthand-properties@6.24.1 </tspan>
<tspan x="10" y="1834">  │ │ ├── babel-plugin-transform-es2015-spread@6.22.0 </tspan>
<tspan x="10" y="1850">  │ │ ├─┬ babel-plugin-transform-es2015-sticky-regex@6.24.1 </tspan>
<tspan x="10" y="1866">  │ │ │ └── babel-helper-regex@6.24.1 </tspan>
<tspan x="10" y="1882">  │ │ ├── babel-plugin-transform-es2015-template-literals@6.22.0 </tspan>
<tspan x="10" y="1898">  │ │ ├── babel-plugin-transform-es2015-typeof-symbol@6.23.0 </tspan>
<tspan x="10" y="1914">  │ │ ├─┬ babel-plugin-transform-es2015-unicode-regex@6.24.1 </tspan>
<tspan x="10" y="1930">  │ │ │ └─┬ regexpu-core@2.0.0 </tspan>
<tspan x="10" y="1946">  │ │ │   ├── regenerate@1.3.2 </tspan>
<tspan x="10" y="1962">  │ │ │   ├── regjsgen@0.2.0 </tspan>
<tspan x="10" y="1978">  │ │ │   └─┬ regjsparser@0.1.5 </tspan>
<tspan x="10" y="1994">  │ │ │     └── jsesc@0.5.0 </tspan>
<tspan x="10" y="2010">  │ │ ├─┬ babel-plugin-transform-exponentiation-operator@6.24.1 </tspan>
<tspan x="10" y="2026">  │ │ │ ├─┬ babel-helper-builder-binary-assignment-operator-visitor@6.24.1 </tspan>
<tspan x="10" y="2042">  │ │ │ │ └── babel-helper-explode-assignable-expression@6.24.1 </tspan>
<tspan x="10" y="2058">  │ │ │ └── babel-plugin-syntax-exponentiation-operator@6.13.0 </tspan>
<tspan x="10" y="2074">  │ │ ├─┬ babel-plugin-transform-regenerator@6.24.1 </tspan>
<tspan x="10" y="2090">  │ │ │ └── regenerator-transform@0.9.11 </tspan>
<tspan x="10" y="2106">  │ │ ├─┬ browserslist@1.7.7 </tspan>
<tspan x="10" y="2122">  │ │ │ ├── caniuse-db@1.0.30000662 </tspan>
<tspan x="10" y="2138">  │ │ │ └── electron-to-chromium@1.3.8 </tspan>
<tspan x="10" y="2154">  │ │ └─┬ invariant@2.2.2 </tspan>
<tspan x="10" y="2170">  │ │   └─┬ loose-envify@1.3.1 </tspan>
<tspan x="10" y="2186">  │ │     └── js-tokens@3.0.1 </tspan>
<tspan x="10" y="2202">  │ ├─┬ broccoli-babel-transpiler@6.0.0 </tspan>
<tspan x="10" y="2218">  │ │ └─┬ babel-core@6.24.1 </tspan>
<tspan x="10" y="2234">  │ │   ├── babel-code-frame@6.22.0 </tspan>
<tspan x="10" y="2250">  │ │   ├─┬ babel-generator@6.24.1 </tspan>
<tspan x="10" y="2266">  │ │   │ ├─┬ detect-indent@4.0.0 </tspan>
<tspan x="10" y="2282">  │ │   │ │ └── repeating@2.0.1 </tspan>
<tspan x="10" y="2298">  │ │   │ ├── jsesc@1.3.0 </tspan>
<tspan x="10" y="2314">  │ │   │ └── trim-right@1.0.1 </tspan>
<tspan x="10" y="2330">  │ │   ├── babel-helpers@6.24.1 </tspan>
<tspan x="10" y="2346">  │ │   ├─┬ babel-register@6.24.1 </tspan>
<tspan x="10" y="2362">  │ │   │ ├── home-or-tmp@2.0.0 </tspan>
<tspan x="10" y="2378">  │ │   │ └── source-map-support@0.4.14 </tspan>
<tspan x="10" y="2394">  │ │   ├── convert-source-map@1.5.0 </tspan>
<tspan x="10" y="2410">  │ │   ├── json5@0.5.1 </tspan>
<tspan x="10" y="2426">  │ │   └── slash@1.0.0 </tspan>
<tspan x="10" y="2442">  │ ├── broccoli-source@1.1.0 </tspan>
<tspan x="10" y="2458">  │ ├── clone@2.1.1 </tspan>
<tspan x="10" y="2474">  │ └─┬ ember-cli-version-checker@1.3.1 </tspan>
<tspan x="10" y="2490">  │   └── semver@5.3.0 </tspan>
<tspan x="10" y="2506">  ├─┬ ember-cli-build-config-editor@0.4.0 </tspan>
<tspan x="10" y="2522">  │ └─┬ recast@0.12.3 </tspan>
<tspan x="10" y="2538">  │   ├── ast-types@0.9.11 </tspan>
<tspan x="10" y="2554">  │   ├── esprima@3.1.3 </tspan>
<tspan x="10" y="2570">  │   ├── private@0.1.7 </tspan>
<tspan x="10" y="2586">  │   └── source-map@0.5.6 </tspan>
<tspan x="10" y="2602">  ├─┬ ember-cli-htmlbars@1.3.0 </tspan>
<tspan x="10" y="2618">  │ ├─┬ hash-for-dep@1.1.2 </tspan>
<tspan x="10" y="2634">  │ │ └─┬ broccoli-kitchen-sink-helpers@0.3.1 </tspan>
<tspan x="10" y="2650">  │ │   └── glob@5.0.15 </tspan>
<tspan x="10" y="2666">  │ ├─┬ json-stable-stringify@1.0.1 </tspan>
<tspan x="10" y="2682">  │ │ └── jsonify@0.0.0 </tspan>
<tspan x="10" y="2698">  │ └─┬ strip-bom@2.0.0 </tspan>
<tspan x="10" y="2714">  │   └── is-utf8@0.2.1 </tspan>
<tspan x="10" y="2730">  ├─┬ ember-runtime-enumerable-includes-polyfill@1.0.4 </tspan>
<tspan x="10" y="2746">  │ └─┬ ember-cli-babel@5.2.4 </tspan>
<tspan x="10" y="2762">  │   └─┬ broccoli-babel-transpiler@5.6.2 </tspan>
<tspan x="10" y="2778">  │     ├─┬ babel-core@5.8.38 </tspan>
<tspan x="10" y="2794">  │     │ ├── babel-plugin-constant-folding@1.0.1 </tspan>
<tspan x="10" y="2810">  │     │ ├── babel-plugin-dead-code-elimination@1.0.2 </tspan>
<tspan x="10" y="2826">  │     │ ├── babel-plugin-eval@1.0.1 </tspan>
<tspan x="10" y="2842">  │     │ ├── babel-plugin-inline-environment-variables@1.0.1 </tspan>
<tspan x="10" y="2858">  │     │ ├── babel-plugin-jscript@1.0.4 </tspan>
<tspan x="10" y="2874">  │     │ ├── babel-plugin-member-expression-literals@1.0.1 </tspan>
<tspan x="10" y="2890">  │     │ ├── babel-plugin-property-literals@1.0.1 </tspan>
<tspan x="10" y="2906">  │     │ ├─┬ babel-plugin-proto-to-assign@1.0.4 </tspan>
<tspan x="10" y="2922">  │     │ │ └── lodash@3.10.1 </tspan>
<tspan x="10" y="2938">  │     │ ├── babel-plugin-react-constant-elements@1.0.3 </tspan>
<tspan x="10" y="2954">  │     │ ├── babel-plugin-react-display-name@1.0.3 </tspan>
<tspan x="10" y="2970">  │     │ ├── babel-plugin-remove-console@1.0.1 </tspan>
<tspan x="10" y="2986">  │     │ ├── babel-plugin-remove-debugger@1.0.1 </tspan>
<tspan x="10" y="3002">  │     │ ├── babel-plugin-runtime@1.0.7 </tspan>
<tspan x="10" y="3018">  │     │ ├─┬ babel-plugin-undeclared-variables-check@1.0.2 </tspan>
<tspan x="10" y="3034">  │     │ │ └── leven@1.0.2 </tspan>
<tspan x="10" y="3050">  │     │ ├── babel-plugin-undefined-to-void@1.1.6 </tspan>
<tspan x="10" y="3066">  │     │ ├── babylon@5.8.38 </tspan>
<tspan x="10" y="3082">  │     │ ├── bluebird@2.11.0 </tspan>
<tspan x="10" y="3098">  │     │ ├── core-js@1.2.7 </tspan>
<tspan x="10" y="3114">  │     │ ├─┬ detect-indent@3.0.1 </tspan>
<tspan x="10" y="3130">  │     │ │ ├── get-stdin@4.0.1 </tspan>
<tspan x="10" y="3146">  │     │ │ └── minimist@1.2.0 </tspan>
<tspan x="10" y="3162">  │     │ ├── fs-readdir-recursive@0.1.2 </tspan>
<tspan x="10" y="3178">  │     │ ├── globals@6.4.1 </tspan>
<tspan x="10" y="3194">  │     │ ├─┬ home-or-tmp@1.0.0 </tspan>
<tspan x="10" y="3210">  │     │ │ └── user-home@1.1.1 </tspan>
<tspan x="10" y="3226">  │     │ ├── is-integer@1.0.6 </tspan>
<tspan x="10" y="3242">  │     │ ├── js-tokens@1.0.1 </tspan>
<tspan x="10" y="3258">  │     │ ├── json5@0.4.0 </tspan>
<tspan x="10" y="3274">  │     │ ├── lodash@3.10.1 </tspan>
<tspan x="10" y="3290">  │     │ ├── minimatch@2.0.10 </tspan>
<tspan x="10" y="3306">  │     │ ├── output-file-sync@1.1.2 </tspan>
<tspan x="10" y="3322">  │     │ ├── path-exists@1.0.0 </tspan>
<tspan x="10" y="3338">  │     │ ├─┬ regenerator@0.8.40 </tspan>
<tspan x="10" y="3354">  │     │ │ ├─┬ commoner@0.10.8 </tspan>
<tspan x="10" y="3370">  │     │ │ │ ├─┬ commander@2.9.0 </tspan>
<tspan x="10" y="3386">  │     │ │ │ │ └── graceful-readlink@1.0.1 </tspan>
<tspan x="10" y="3402">  │     │ │ │ ├─┬ detective@4.5.0 </tspan>
<tspan x="10" y="3418">  │     │ │ │ │ ├── acorn@4.0.11 </tspan>
<tspan x="10" y="3434">  │     │ │ │ │ └── defined@1.0.0 </tspan>
<tspan x="10" y="3450">  │     │ │ │ ├── glob@5.0.15 </tspan>
<tspan x="10" y="3466">  │     │ │ │ ├── iconv-lite@0.4.16 </tspan>
<tspan x="10" y="3482">  │     │ │ │ ├── q@1.5.0 </tspan>
<tspan x="10" y="3498">  │     │ │ │ └─┬ recast@0.11.23 </tspan>
<tspan x="10" y="3514">  │     │ │ │   └── ast-types@0.9.6 </tspan>
<tspan x="10" y="3530">  │     │ │ ├─┬ defs@1.1.1 </tspan>
<tspan x="10" y="3546">  │     │ │ │ ├─┬ alter@0.2.0 </tspan>
<tspan x="10" y="3562">  │     │ │ │ │ └── stable@0.1.6 </tspan>
<tspan x="10" y="3578">  │     │ │ │ ├── ast-traverse@0.1.1 </tspan>
<tspan x="10" y="3594">  │     │ │ │ ├── breakable@1.0.0 </tspan>
<tspan x="10" y="3610">  │     │ │ │ ├── esprima-fb@15001.1001.0-dev-harmony-fb </tspan>
<tspan x="10" y="3626">  │     │ │ │ ├── simple-fmt@0.1.0 </tspan>
<tspan x="10" y="3642">  │     │ │ │ ├── simple-is@0.2.0 </tspan>
<tspan x="10" y="3658">  │     │ │ │ ├── stringmap@0.2.2 </tspan>
<tspan x="10" y="3674">  │     │ │ │ ├── stringset@0.2.1 </tspan>
<tspan x="10" y="3690">  │     │ │ │ ├── tryor@0.1.2 </tspan>
<tspan x="10" y="3706">  │     │ │ │ └─┬ yargs@3.27.0 </tspan>
<tspan x="10" y="3722">  │     │ │ │   ├── camelcase@1.2.1 </tspan>
<tspan x="10" y="3738">  │     │ │ │   ├─┬ cliui@2.1.0 </tspan>
<tspan x="10" y="3754">  │     │ │ │   │ ├─┬ center-align@0.1.3 </tspan>
<tspan x="10" y="3770">  │     │ │ │   │ │ ├─┬ align-text@0.1.4 </tspan>
<tspan x="10" y="3786">  │     │ │ │   │ │ │ └── longest@1.0.1 </tspan>
<tspan x="10" y="3802">  │     │ │ │   │ │ └── lazy-cache@1.0.4 </tspan>
<tspan x="10" y="3818">  │     │ │ │   │ ├── right-align@0.1.3 </tspan>
<tspan x="10" y="3834">  │     │ │ │   │ └── wordwrap@0.0.2 </tspan>
<tspan x="10" y="3850">  │     │ │ │   ├── decamelize@1.2.0 </tspan>
<tspan x="10" y="3866">  │     │ │ │   ├─┬ os-locale@1.4.0 </tspan>
<tspan x="10" y="3882">  │     │ │ │   │ └─┬ lcid@1.0.0 </tspan>
<tspan x="10" y="3898">  │     │ │ │   │   └── invert-kv@1.0.0 </tspan>
<tspan x="10" y="3914">  │     │ │ │   ├── window-size@0.1.4 </tspan>
<tspan x="10" y="3930">  │     │ │ │   └── y18n@3.2.1 </tspan>
<tspan x="10" y="3946">  │     │ │ ├── esprima-fb@15001.1001.0-dev-harmony-fb </tspan>
<tspan x="10" y="3962">  │     │ │ ├─┬ recast@0.10.33 </tspan>
<tspan x="10" y="3978">  │     │ │ │ └── ast-types@0.8.12 </tspan>
<tspan x="10" y="3994">  │     │ │ └── through@2.3.8 </tspan>
<tspan x="10" y="4010">  │     │ ├─┬ regexpu@1.3.0 </tspan>
<tspan x="10" y="4026">  │     │ │ ├── esprima@2.7.3 </tspan>
<tspan x="10" y="4042">  │     │ │ └─┬ recast@0.10.43 </tspan>
<tspan x="10" y="4058">  │     │ │   ├── ast-types@0.8.15 </tspan>
<tspan x="10" y="4074">  │     │ │   └── esprima-fb@15001.1001.0-dev-harmony-fb </tspan>
<tspan x="10" y="4090">  │     │ ├─┬ repeating@1.1.3 </tspan>
<tspan x="10" y="4106">  │     │ │ └─┬ is-finite@1.0.2 </tspan>
<tspan x="10" y="4122">  │     │ │   └── number-is-nan@1.0.1 </tspan>
<tspan x="10" y="4138">  │     │ ├── shebang-regex@1.0.0 </tspan>
<tspan x="10" y="4154">  │     │ ├─┬ source-map-support@0.2.10 </tspan>
<tspan x="10" y="4170">  │     │ │ └─┬ source-map@0.1.32 </tspan>
<tspan x="10" y="4186">  │     │ │   └── amdefine@1.0.1 </tspan>
<tspan x="10" y="4202">  │     │ └── try-resolve@1.0.1 </tspan>
<tspan x="10" y="4218">  │     └── clone@0.2.0 </tspan>
<tspan x="10" y="4234">  ├─┬ ember-wormhole@0.4.1 </tspan>
<tspan x="10" y="4250">  │ └─┬ ember-cli-babel@5.2.4 </tspan>
<tspan x="10" y="4266">  │   └─┬ broccoli-babel-transpiler@5.6.2 </tspan>
<tspan x="10" y="4282">  │     ├─┬ babel-core@5.8.38 </tspan>
<tspan x="10" y="4298">  │     │ ├── babylon@5.8.38 </tspan>
<tspan x="10" y="4314">  │     │ ├── core-js@1.2.7 </tspan>
<tspan x="10" y="4330">  │     │ ├─┬ detect-indent@3.0.1 </tspan>
<tspan x="10" y="4346">  │     │ │ └── minimist@1.2.0 </tspan>
<tspan x="10" y="4362">  │     │ ├── globals@6.4.1 </tspan>
<tspan x="10" y="4378">  │     │ ├── home-or-tmp@1.0.0 </tspan>
<tspan x="10" y="4394">  │     │ ├── js-tokens@1.0.1 </tspan>
<tspan x="10" y="4410">  │     │ ├── json5@0.4.0 </tspan>
<tspan x="10" y="4426">  │     │ ├── lodash@3.10.1 </tspan>
<tspan x="10" y="4442">  │     │ ├── minimatch@2.0.10 </tspan>
<tspan x="10" y="4458">  │     │ ├── repeating@1.1.3 </tspan>
<tspan x="10" y="4474">  │     │ └─┬ source-map-support@0.2.10 </tspan>
<tspan x="10" y="4490">  │     │   └── source-map@0.1.32 </tspan>
<tspan x="10" y="4506">  │     └── clone@0.2.0 </tspan>
<tspan x="10" y="4522">  ├─┬ findup-sync@0.4.3 </tspan>
<tspan x="10" y="4538">  │ ├─┬ detect-file@0.1.0 </tspan>
<tspan x="10" y="4554">  │ │ └── fs-exists-sync@0.1.0 </tspan>
<tspan x="10" y="4570">  │ ├─┬ is-glob@2.0.1 </tspan>
<tspan x="10" y="4586">  │ │ └── is-extglob@1.0.0 </tspan>
<tspan x="10" y="4602">  │ ├─┬ micromatch@2.3.11 </tspan>
<tspan x="10" y="4618">  │ │ ├─┬ arr-diff@2.0.0 </tspan>
<tspan x="10" y="4634">  │ │ │ └── arr-flatten@1.0.3 </tspan>
<tspan x="10" y="4650">  │ │ ├── array-unique@0.2.1 </tspan>
<tspan x="10" y="4666">  │ │ ├─┬ braces@1.8.5 </tspan>
<tspan x="10" y="4682">  │ │ │ ├─┬ expand-range@1.8.2 </tspan>
<tspan x="10" y="4698">  │ │ │ │ └─┬ fill-range@2.2.3 </tspan>
<tspan x="10" y="4714">  │ │ │ │   ├── is-number@2.1.0 </tspan>
<tspan x="10" y="4730">  │ │ │ │   ├─┬ isobject@2.1.0 </tspan>
<tspan x="10" y="4746">  │ │ │ │   │ └── isarray@1.0.0 </tspan>
<tspan x="10" y="4762">  │ │ │ │   ├── randomatic@1.1.6 </tspan>
<tspan x="10" y="4778">  │ │ │ │   └── repeat-string@1.6.1 </tspan>
<tspan x="10" y="4794">  │ │ │ ├── preserve@0.2.0 </tspan>
<tspan x="10" y="4810">  │ │ │ └── repeat-element@1.1.2 </tspan>
<tspan x="10" y="4826">  │ │ ├─┬ expand-brackets@0.1.5 </tspan>
<tspan x="10" y="4842">  │ │ │ └── is-posix-bracket@0.1.1 </tspan>
<tspan x="10" y="4858">  │ │ ├── extglob@0.3.2 </tspan>
<tspan x="10" y="4874">  │ │ ├── filename-regex@2.0.0 </tspan>
<tspan x="10" y="4890">  │ │ ├─┬ kind-of@3.2.0 </tspan>
<tspan x="10" y="4906">  │ │ │ └── is-buffer@1.1.5 </tspan>
<tspan x="10" y="4922">  │ │ ├─┬ normalize-path@2.1.1 </tspan>
<tspan x="10" y="4938">  │ │ │ └── remove-trailing-separator@1.0.1 </tspan>
<tspan x="10" y="4954">  │ │ ├─┬ object.omit@2.0.1 </tspan>
<tspan x="10" y="4970">  │ │ │ ├─┬ for-own@0.1.5 </tspan>
<tspan x="10" y="4986">  │ │ │ │ └── for-in@1.0.2 </tspan>
<tspan x="10" y="5002">  │ │ │ └── is-extendable@0.1.1 </tspan>
<tspan x="10" y="5018">  │ │ ├─┬ parse-glob@3.0.4 </tspan>
<tspan x="10" y="5034">  │ │ │ ├─┬ glob-base@0.3.0 </tspan>
<tspan x="10" y="5050">  │ │ │ │ └── glob-parent@2.0.0 </tspan>
<tspan x="10" y="5066">  │ │ │ └── is-dotfile@1.0.2 </tspan>
<tspan x="10" y="5082">  │ │ └─┬ regex-cache@0.4.3 </tspan>
<tspan x="10" y="5098">  │ │   ├── is-equal-shallow@0.1.3 </tspan>
<tspan x="10" y="5114">  │ │   └── is-primitive@2.0.0 </tspan>
<tspan x="10" y="5130">  │ └─┬ resolve-dir@0.1.1 </tspan>
<tspan x="10" y="5146">  │   ├─┬ expand-tilde@1.2.2 </tspan>
<tspan x="10" y="5162">  │   │ └── os-homedir@1.0.2 </tspan>
<tspan x="10" y="5178">  │   └─┬ global-modules@0.2.3 </tspan>
<tspan x="10" y="5194">  │     ├─┬ global-prefix@0.1.5 </tspan>
<tspan x="10" y="5210">  │     │ ├─┬ homedir-polyfill@1.0.1 </tspan>
<tspan x="10" y="5226">  │     │ │ └── parse-passwd@1.0.0 </tspan>
<tspan x="10" y="5242">  │     │ ├── ini@1.3.4 </tspan>
<tspan x="10" y="5258">  │     │ └─┬ which@1.2.14 </tspan>
<tspan x="10" y="5274">  │     │   └── isexe@2.0.0 </tspan>
<tspan x="10" y="5290">  │     └── is-windows@0.2.0 </tspan>
<tspan x="10" y="5306">  ├─┬ fs-extra@2.1.2 </tspan>
<tspan x="10" y="5322">  │ ├── graceful-fs@4.1.11 </tspan>
<tspan x="10" y="5338">  │ └── jsonfile@2.4.0 </tspan>
<tspan x="10" y="5354">  ├── rsvp@3.5.0 </tspan>
<tspan x="10" y="5370">  └── silent-error@1.0.1</tspan>
</text>
</svg>
